<svg width="18" height="19" viewBox="0 0 18 19" fill="none" xmlns="http://www.w3.org/2000/svg">
<path fill-rule="evenodd" clip-rule="evenodd" d="M8.99999 0.181641C6.96385 0.181641 6.77134 3.72816 5.55911 4.98122C4.34689 6.23427 0.578199 4.80156 0.0545867 7.02567C-0.467925 9.25091 2.92235 10.0059 3.34036 11.9151C3.76057 13.8242 1.68922 16.5066 3.45916 17.8415C5.22911 19.1753 7.13435 16.1563 8.99999 16.1563C10.8656 16.1563 12.7709 19.1753 14.5408 17.8415C16.3108 16.5066 14.2405 13.8242 14.6596 11.9151C15.0787 10.0059 18.4679 9.25091 17.9454 7.02567C17.4229 4.80156 13.6531 6.23427 12.442 4.98122C11.2297 3.72816 11.0361 0.181641 8.99999 0.181641Z" fill="#006EFF"/>
</svg>
