<svg width="183" height="18" viewBox="0 0 183 18" fill="none" xmlns="http://www.w3.org/2000/svg">
<path d="M0 0.585938V16.9995H5.5806C10.9267 16.9995 14.6784 14.4671 14.6784 8.46443C14.6784 3.42313 11.7239 0.585938 5.65094 0.585938H0ZM2.93099 14.3029V3.28244H5.60404C9.75432 3.28244 11.6067 5.08793 11.6067 8.7458C11.6067 12.3099 9.63708 14.3029 5.5806 14.3029H2.93099Z" fill="#101828"/>
<path d="M27.7813 7.19824H20.2311V3.28244H28.6489V0.585938H17.3001V16.9995H28.9068V14.3029H20.2311V9.89475H27.7813V7.19824Z" fill="#101828"/>
<path d="M39.7724 16.9995L46.4316 0.585938H43.4537L38.3655 13.3885L33.2539 0.585938H30.1118L36.8648 16.9995H39.7724Z" fill="#101828"/>
<path d="M65.0804 17.328C67.7684 17.328 70.6484 16.08 71.3924 14.928V7.872H65.2004V10.632H68.6084V13.752C67.7684 14.256 66.6644 14.568 65.1764 14.568C61.2644 14.544 59.2244 11.952 59.2244 8.664C59.2244 5.16 61.4564 2.784 65.1044 2.76C67.6244 2.76 69.6644 4.2 70.6724 5.688V1.512C69.6884 0.816 67.7444 0 65.1044 0C59.5604 0.0239997 55.9844 3.6 55.9844 8.64C55.9844 14.064 59.6084 17.28 65.0804 17.328Z" fill="#101828"/>
<path d="M74.5112 8.64C74.5112 14.088 78.1112 17.328 83.5112 17.328C88.9832 17.328 92.5112 13.752 92.5112 8.688C92.5112 3.264 88.9112 0.0239997 83.5112 0C78.0392 0 74.5112 3.576 74.5112 8.64ZM77.6792 8.664C77.6792 5.16 79.8873 2.784 83.4873 2.76C87.3273 2.784 89.3432 5.376 89.3432 8.664C89.3432 12.192 87.1113 14.568 83.5352 14.568C79.6952 14.544 77.6792 11.952 77.6792 8.664Z" fill="#101828"/>
<path d="M107.345 5.664V1.512C106.385 0.792 104.441 0.0239997 101.849 0C97.8406 0 95.4646 1.752 95.4646 4.728C95.4646 11.448 105.089 8.832 105.089 12.384C105.089 13.752 103.985 14.568 101.633 14.568C98.6806 14.568 96.4966 13.224 95.4646 11.52V15.216C96.3526 16.224 98.6806 17.328 101.609 17.328C106.121 17.328 108.161 15.072 108.161 12.24C108.161 5.688 98.5126 8.136 98.5126 4.656C98.5126 3.504 99.4966 2.784 101.849 2.76C104.321 2.736 106.361 4.176 107.345 5.664Z" fill="#101828"/>
<path d="M131.254 0.263999H117.022V3.024H122.59V17.064H125.59V3.024H131.254V0.263999Z" fill="#101828"/>
<path d="M144.984 7.032H137.256V3.024H145.872V0.263999H134.256V17.064H146.136V14.304H137.256V9.792H144.984V7.032Z" fill="#101828"/>
<path d="M163.397 11.52C162.413 13.224 160.349 14.568 157.421 14.568C153.557 14.496 151.565 11.928 151.565 8.664C151.565 5.136 153.821 2.76 157.493 2.76C160.013 2.76 162.053 4.2 163.061 5.688V1.512C162.077 0.816 160.133 0 157.493 0C151.925 0 148.325 3.576 148.325 8.64C148.325 14.064 151.973 17.304 157.445 17.328C160.349 17.328 162.557 16.224 163.397 15.216V11.52Z" fill="#101828"/>
<path d="M179.166 17.064H182.166V0.263999H179.166V7.032H169.974V0.263999H166.974V17.064H169.974V9.792H179.166V17.064Z" fill="#101828"/>
<path d="M43.4129 16.999H48.6653L55.1786 0.0644531H49.968L43.4129 16.999Z" fill="#006EFF"/>
<path d="M36.9414 16.999H40.8494L47.3627 0.0644531H43.4547L36.9414 16.999Z" fill="#006EFF"/>
<path d="M43.4129 16.999H48.6653L55.1786 0.0644531H49.968L43.4129 16.999Z" fill="#006EFF"/>
</svg>
