<svg width="21" height="25" viewBox="0 0 21 25" fill="none" xmlns="http://www.w3.org/2000/svg">
<path d="M15.2562 0.717523L15.1362 3.42752C15.1348 3.4618 15.1431 3.49578 15.1603 3.52546C15.1776 3.55514 15.2029 3.57929 15.2334 3.59505C15.2638 3.61081 15.2982 3.61754 15.3323 3.61443C15.3665 3.61133 15.3991 3.59852 15.4262 3.57752L16.4862 2.77752L17.3862 3.47752C17.4126 3.49524 17.4433 3.50564 17.475 3.50766C17.5068 3.50968 17.5385 3.50325 17.567 3.48902C17.5954 3.47479 17.6196 3.45328 17.637 3.42666C17.6545 3.40005 17.6645 3.36929 17.6662 3.33752L17.5662 0.577523L18.8962 0.477523C19.0604 0.466553 19.2251 0.489467 19.38 0.544841C19.535 0.600215 19.6769 0.686866 19.7969 0.799409C19.917 0.911952 20.0126 1.04798 20.0779 1.19904C20.1431 1.35011 20.1766 1.51297 20.1762 1.67752V23.2775C20.1764 23.4403 20.1435 23.6014 20.0795 23.751C20.0155 23.9007 19.9217 24.0357 19.8038 24.148C19.6859 24.2602 19.5465 24.3473 19.3939 24.404C19.2413 24.4606 19.0788 24.4857 18.9162 24.4775L2.81622 23.7575C2.5135 23.7451 2.2267 23.6185 2.01339 23.4034C1.80009 23.1882 1.67606 22.9003 1.66622 22.5975L0.91622 2.79752C0.906755 2.63988 0.928501 2.48191 0.980211 2.33269C1.03192 2.18347 1.11258 2.04592 1.21756 1.92793C1.32254 1.80994 1.44978 1.71384 1.59198 1.64513C1.73418 1.57642 1.88854 1.53645 2.04622 1.52752L15.2462 0.697523L15.2562 0.717523ZM12.1862 9.77752C12.1862 10.2475 15.3462 10.0175 15.7762 9.69752C15.7762 6.49752 14.0562 4.80752 10.9162 4.80752C7.76622 4.80752 6.01622 6.52752 6.01622 9.09752C6.01622 13.5475 12.0162 13.6275 12.0162 16.0575C12.0162 16.7575 11.6962 17.1575 10.9662 17.1575C10.0062 17.1575 9.61622 16.6675 9.66622 14.9975C9.66622 14.6375 6.01622 14.5175 5.89622 14.9975C5.62622 19.0275 8.12622 20.1975 10.9962 20.1975C13.7862 20.1975 15.9662 18.7075 15.9662 16.0175C15.9662 11.2475 9.86622 11.3775 9.86622 9.01752C9.86622 8.04752 10.5862 7.91752 10.9962 7.91752C11.4462 7.91752 12.2462 7.98752 12.1862 9.78752V9.77752Z" fill="#006EFF"/>
</svg>
