<svg width="25" height="25" viewBox="0 0 25 25" fill="none" xmlns="http://www.w3.org/2000/svg">
<path d="M9.58187 1.47754C8.62761 1.50484 7.72159 1.9031 7.05627 2.58772C6.39095 3.27235 6.01876 4.18939 6.01876 5.14404C6.01876 6.09869 6.39095 7.01573 7.05627 7.70035C7.72159 8.38498 8.62761 8.78324 9.58187 8.81054C8.62266 8.82183 7.70604 9.20844 7.02848 9.8875C6.35093 10.5666 5.96635 11.484 5.9572 12.4433C5.94804 13.4025 6.31503 14.3272 6.9795 15.019C7.64398 15.7109 8.55305 16.1149 9.51187 16.1445C8.55994 16.1837 7.66061 16.5918 7.00422 17.2824C6.34783 17.9729 5.98588 18.8918 5.99497 19.8444C6.00407 20.7971 6.3835 21.7089 7.05295 22.3868C7.72241 23.0647 8.62936 23.4555 9.58187 23.4765C10.554 23.476 11.4861 23.0896 12.1735 22.4022C12.8609 21.7148 13.2473 20.7827 13.2479 19.8105V8.81054H16.9139C17.8681 8.78324 18.7742 8.38498 19.4395 7.70035C20.1048 7.01573 20.477 6.09869 20.477 5.14404C20.477 4.18939 20.1048 3.27235 19.4395 2.58772C18.7742 1.9031 17.8681 1.50484 16.9139 1.47754H9.58187Z" fill="#006EFF"/>
<path d="M16.9144 16.1445C17.8721 16.1222 18.7831 15.726 19.4525 15.0408C20.122 14.3555 20.4967 13.4355 20.4967 12.4775C20.4967 11.5196 20.122 10.5996 19.4525 9.91434C18.7831 9.22908 17.8721 8.83291 16.9144 8.81055C15.9567 8.83291 15.0457 9.22908 14.3763 9.91434C13.7068 10.5996 13.332 11.5196 13.332 12.4775C13.332 13.4355 13.7068 14.3555 14.3763 15.0408C15.0457 15.726 15.9567 16.1222 16.9144 16.1445Z" fill="#006EFF"/>
</svg>
