<svg width="23" height="21" viewBox="0 0 23 21" fill="none" xmlns="http://www.w3.org/2000/svg">
<path d="M1.24404 0.170469C1.14008 0.169128 1.03708 0.190562 0.942277 0.233264C0.847475 0.275967 0.76317 0.338903 0.695281 0.417654C0.627392 0.496406 0.577564 0.589064 0.549295 0.689122C0.521027 0.789181 0.515004 0.894214 0.531648 0.996848L3.55577 19.3553C3.59345 19.5799 3.70908 19.7841 3.88235 19.932C4.05563 20.0799 4.27547 20.162 4.50325 20.1639H19.0112C19.1819 20.1661 19.3478 20.1068 19.4786 19.997C19.6093 19.8872 19.6963 19.734 19.7236 19.5654L22.7548 1.00397C22.7715 0.901338 22.7655 0.796305 22.7372 0.696247C22.7089 0.596188 22.6591 0.50353 22.5912 0.424779C22.5233 0.346027 22.439 0.283091 22.3442 0.240389C22.2494 0.197686 22.1464 0.176253 22.0424 0.177594L1.24404 0.170469ZM13.9781 13.4388H9.34754L8.09373 6.89192H15.1001L13.9781 13.4388Z" fill="#006EFF"/>
<path d="M21.7859 6.89185H15.1001L13.9781 13.4388H9.34752L3.87988 19.9323C4.05318 20.0821 4.27413 20.1654 4.50323 20.1673H19.0147C19.1855 20.1695 19.3513 20.1103 19.4821 20.0005C19.6129 19.8907 19.6998 19.7375 19.7271 19.5689L21.7859 6.89185Z" fill="#006EFF"/>
</svg>
