<svg width="163" height="92" viewBox="0 0 163 92" fill="none" xmlns="http://www.w3.org/2000/svg">
<rect width="163" height="40" rx="6" fill="#4977FF"/>
<path d="M53.2844 25.968C54.4844 26.064 55.7484 26.112 56.8684 26.112C60.5324 26.112 61.6684 25.088 61.6684 22.72C61.6684 21.2 60.9324 20.272 59.2844 20.144C60.5644 19.792 61.2044 18.96 61.2044 17.584C61.2044 15.552 60.2604 14.704 56.9804 14.704C55.9404 14.704 54.5164 14.768 53.2844 14.832V25.968ZM55.4124 24.24V21.072H57.2844C58.8844 21.072 59.5084 21.44 59.5084 22.64C59.5084 23.84 59.0124 24.32 57.1084 24.32C56.5484 24.32 55.9564 24.288 55.4124 24.24ZM55.4124 19.552V16.56C55.9724 16.512 56.5164 16.512 57.0604 16.512C58.7404 16.512 59.0924 16.816 59.0924 18.048C59.0924 19.024 58.6604 19.552 57.2524 19.552H55.4124ZM69.9994 26H71.9514V17.36H69.9034V22.352C69.9034 23.808 69.3434 24.448 67.9354 24.448C66.6394 24.448 66.1914 23.904 66.1914 22.528V17.36H64.1434V23.056C64.1434 25.248 65.1194 26.192 67.0714 26.192C68.4634 26.192 69.3594 25.712 69.9194 24.704L69.9994 26ZM75.7493 23.232C75.7493 25.36 76.6133 26.192 78.6293 26.192C79.6053 26.192 80.4693 25.952 80.8213 25.744V23.936C80.3893 24.208 79.8133 24.4 79.0613 24.4C78.1653 24.4 77.7973 23.984 77.7973 22.944V19.088H80.6293V17.36H77.7973V15.136L75.7493 15.84V17.36H74.0533V19.088H75.7493V23.232ZM84.0849 23.232C84.0849 25.36 84.9489 26.192 86.9649 26.192C87.9409 26.192 88.8049 25.952 89.1569 25.744V23.936C88.7249 24.208 88.1489 24.4 87.3969 24.4C86.5009 24.4 86.1329 23.984 86.1329 22.944V19.088H88.9649V17.36H86.1329V15.136L84.0849 15.84V17.36H82.3889V19.088H84.0849V23.232ZM90.9682 21.664C90.9682 24.64 92.3762 26.192 95.3202 26.192C98.0722 26.192 99.7042 24.832 99.7042 21.696C99.7042 18.592 98.2642 17.168 95.4322 17.168C92.6322 17.168 90.9682 18.672 90.9682 21.664ZM93.0642 21.664C93.0642 19.792 93.7522 18.848 95.3202 18.848C96.9362 18.848 97.6082 19.744 97.6082 21.664V21.728C97.6082 23.68 96.8882 24.512 95.4002 24.512C93.7842 24.512 93.0642 23.52 93.0642 21.728V21.664ZM102.207 26H104.255V21.024C104.255 19.696 104.863 18.896 106.223 18.896C107.631 18.896 108.047 19.456 108.047 21.008V26H110.079V20.4C110.079 18.064 109.087 17.168 107.039 17.168C105.743 17.168 104.783 17.68 104.239 18.688L104.159 17.36H102.207V26Z" fill="#F6F7F8"/>
<rect x="0.5" y="52.5" width="162" height="39" rx="5.5" fill="white"/>
<path d="M53.2844 77.968C54.4844 78.064 55.7484 78.112 56.8684 78.112C60.5324 78.112 61.6684 77.088 61.6684 74.72C61.6684 73.2 60.9324 72.272 59.2844 72.144C60.5644 71.792 61.2044 70.96 61.2044 69.584C61.2044 67.552 60.2604 66.704 56.9804 66.704C55.9404 66.704 54.5164 66.768 53.2844 66.832V77.968ZM55.4124 76.24V73.072H57.2844C58.8844 73.072 59.5084 73.44 59.5084 74.64C59.5084 75.84 59.0124 76.32 57.1084 76.32C56.5484 76.32 55.9564 76.288 55.4124 76.24ZM55.4124 71.552V68.56C55.9724 68.512 56.5164 68.512 57.0604 68.512C58.7404 68.512 59.0924 68.816 59.0924 70.048C59.0924 71.024 58.6604 71.552 57.2524 71.552H55.4124ZM69.9994 78H71.9514V69.36H69.9034V74.352C69.9034 75.808 69.3434 76.448 67.9354 76.448C66.6394 76.448 66.1914 75.904 66.1914 74.528V69.36H64.1434V75.056C64.1434 77.248 65.1194 78.192 67.0714 78.192C68.4634 78.192 69.3594 77.712 69.9194 76.704L69.9994 78ZM75.7493 75.232C75.7493 77.36 76.6133 78.192 78.6293 78.192C79.6053 78.192 80.4693 77.952 80.8213 77.744V75.936C80.3893 76.208 79.8133 76.4 79.0613 76.4C78.1653 76.4 77.7973 75.984 77.7973 74.944V71.088H80.6293V69.36H77.7973V67.136L75.7493 67.84V69.36H74.0533V71.088H75.7493V75.232ZM84.0849 75.232C84.0849 77.36 84.9489 78.192 86.9649 78.192C87.9409 78.192 88.8049 77.952 89.1569 77.744V75.936C88.7249 76.208 88.1489 76.4 87.3969 76.4C86.5009 76.4 86.1329 75.984 86.1329 74.944V71.088H88.9649V69.36H86.1329V67.136L84.0849 67.84V69.36H82.3889V71.088H84.0849V75.232ZM90.9682 73.664C90.9682 76.64 92.3762 78.192 95.3202 78.192C98.0722 78.192 99.7042 76.832 99.7042 73.696C99.7042 70.592 98.2642 69.168 95.4322 69.168C92.6322 69.168 90.9682 70.672 90.9682 73.664ZM93.0642 73.664C93.0642 71.792 93.7522 70.848 95.3202 70.848C96.9362 70.848 97.6082 71.744 97.6082 73.664V73.728C97.6082 75.68 96.8882 76.512 95.4002 76.512C93.7842 76.512 93.0642 75.52 93.0642 73.728V73.664ZM102.207 78H104.255V73.024C104.255 71.696 104.863 70.896 106.223 70.896C107.631 70.896 108.047 71.456 108.047 73.008V78H110.079V72.4C110.079 70.064 109.087 69.168 107.039 69.168C105.743 69.168 104.783 69.68 104.239 70.688L104.159 69.36H102.207V78Z" fill="#4977FF"/>
<rect x="0.5" y="52.5" width="162" height="39" rx="5.5" stroke="#4977FF"/>
</svg>
