<svg width="169" height="131" viewBox="0 0 169 131" fill="none" xmlns="http://www.w3.org/2000/svg">
<g filter="url(#filter0_dd_1_6789)">
<rect x="8" y="4" width="153" height="115" rx="6" fill="white"/>
</g>
<rect x="47" y="20" width="73" height="6" rx="3" fill="#8F96AE"/>
<rect x="20" y="20" width="6" height="6" rx="3" fill="#4977FF"/>
<rect x="141" y="20" width="6" height="6" rx="3" fill="#4977FF"/>
<rect x="20" y="38" width="19" height="19" rx="4" fill="#D0D3DD"/>
<rect x="47" y="38" width="19" height="19" rx="4" fill="#D0D3DD"/>
<rect x="74" y="38" width="19" height="19" rx="4" fill="#D0D3DD"/>
<rect x="101" y="38" width="19" height="19" rx="4" fill="#D0D3DD"/>
<rect x="128" y="38" width="19" height="19" rx="4" fill="#D0D3DD"/>
<rect x="20" y="67" width="19" height="19" rx="4" fill="#D0D3DD"/>
<rect x="47" y="67" width="19" height="19" rx="4" fill="#D0D3DD"/>
<rect x="74.5" y="67.5" width="18" height="18" rx="3.5" fill="#BCCBFB" stroke="#4977FF"/>
<rect x="101" y="67" width="19" height="19" rx="4" fill="#D0D3DD"/>
<rect x="128" y="67" width="19" height="19" rx="4" fill="#D0D3DD"/>
<rect x="93.5" y="98.5" width="53" height="9" rx="2.5" fill="white" stroke="#4977FF"/>
<defs>
<filter id="filter0_dd_1_6789" x="0" y="0" width="169" height="131" filterUnits="userSpaceOnUse" color-interpolation-filters="sRGB">
<feFlood flood-opacity="0" result="BackgroundImageFix"/>
<feColorMatrix in="SourceAlpha" type="matrix" values="0 0 0 0 0 0 0 0 0 0 0 0 0 0 0 0 0 0 127 0" result="hardAlpha"/>
<feOffset dy="4"/>
<feGaussianBlur stdDeviation="4"/>
<feColorMatrix type="matrix" values="0 0 0 0 0.14902 0 0 0 0 0.14902 0 0 0 0 0.14902 0 0 0 0.16 0"/>
<feBlend mode="normal" in2="BackgroundImageFix" result="effect1_dropShadow_1_6789"/>
<feColorMatrix in="SourceAlpha" type="matrix" values="0 0 0 0 0 0 0 0 0 0 0 0 0 0 0 0 0 0 127 0" result="hardAlpha"/>
<feOffset dy="1"/>
<feGaussianBlur stdDeviation="1"/>
<feColorMatrix type="matrix" values="0 0 0 0 0.14902 0 0 0 0 0.14902 0 0 0 0 0.14902 0 0 0 0.04 0"/>
<feBlend mode="normal" in2="effect1_dropShadow_1_6789" result="effect2_dropShadow_1_6789"/>
<feBlend mode="normal" in="SourceGraphic" in2="effect2_dropShadow_1_6789" result="shape"/>
</filter>
</defs>
</svg>
