<svg width="256" height="40" viewBox="0 0 256 40" fill="none" xmlns="http://www.w3.org/2000/svg">
<rect width="84" height="40" rx="6" fill="#4977FF"/>
<path d="M17.6401 15.228C17.8454 15.2187 18.0787 15.2093 18.3401 15.2C18.6014 15.1813 18.8627 15.1673 19.1241 15.158C19.3947 15.1393 19.6607 15.13 19.9221 15.13C20.1834 15.1207 20.4214 15.116 20.6361 15.116C21.3267 15.116 21.9007 15.1627 22.3581 15.256C22.8247 15.3493 23.1981 15.4987 23.4781 15.704C23.7581 15.9 23.9541 16.1567 24.0661 16.474C24.1874 16.7913 24.2481 17.1693 24.2481 17.608C24.2481 18.7933 23.7114 19.5447 22.6381 19.862C23.3567 19.9367 23.8794 20.17 24.2061 20.562C24.5327 20.954 24.6961 21.4767 24.6961 22.13C24.6961 22.6433 24.6261 23.0867 24.4861 23.46C24.3461 23.8333 24.1174 24.146 23.8001 24.398C23.4921 24.6407 23.0814 24.8227 22.5681 24.944C22.0547 25.056 21.4247 25.112 20.6781 25.112C20.1274 25.112 19.5861 25.098 19.0541 25.07C18.5314 25.042 18.0601 25.0047 17.6401 24.958V15.228ZM19.2081 23.67C19.4507 23.698 19.7167 23.7213 20.0061 23.74C20.2954 23.7493 20.5707 23.754 20.8321 23.754C21.2801 23.754 21.6487 23.726 21.9381 23.67C22.2274 23.6047 22.4607 23.5067 22.6381 23.376C22.8154 23.236 22.9367 23.0633 23.0021 22.858C23.0767 22.6527 23.1141 22.4007 23.1141 22.102C23.1141 21.5233 22.9461 21.1267 22.6101 20.912C22.2741 20.6973 21.7421 20.59 21.0141 20.59H19.2081V23.67ZM20.8881 19.442C21.5694 19.442 22.0407 19.316 22.3021 19.064C22.5634 18.812 22.6941 18.4527 22.6941 17.986C22.6941 17.678 22.6661 17.426 22.6101 17.23C22.5634 17.0247 22.4654 16.866 22.3161 16.754C22.1667 16.642 21.9614 16.5673 21.7001 16.53C21.4481 16.4833 21.1167 16.46 20.7061 16.46C20.4634 16.46 20.2114 16.4647 19.9501 16.474C19.6981 16.474 19.4507 16.4833 19.2081 16.502V19.442H20.8881ZM32.1286 23.838C31.886 24.286 31.564 24.6173 31.1626 24.832C30.7706 25.0467 30.2713 25.154 29.6646 25.154C28.8433 25.154 28.218 24.9487 27.7886 24.538C27.3686 24.118 27.1586 23.4367 27.1586 22.494V17.524H28.6426V22.088C28.6426 22.4147 28.6706 22.69 28.7266 22.914C28.7826 23.138 28.8713 23.32 28.9926 23.46C29.1233 23.6 29.2913 23.7027 29.4966 23.768C29.702 23.8333 29.954 23.866 30.2526 23.866C30.9246 23.866 31.4006 23.712 31.6806 23.404C31.97 23.0867 32.1146 22.5827 32.1146 21.892V17.524H33.5846V25H32.1986L32.1286 23.838ZM37.1657 18.798H35.6257V17.524H37.1657V16.082L38.6357 15.55V17.524H41.2117V18.798H38.6357V22.494C38.6357 22.998 38.729 23.348 38.9157 23.544C39.1023 23.7307 39.4057 23.824 39.8257 23.824C40.199 23.824 40.5117 23.7867 40.7637 23.712C41.0157 23.628 41.2397 23.5253 41.4357 23.404V24.734C41.277 24.8367 41.0297 24.93 40.6937 25.014C40.3577 25.098 39.989 25.14 39.5877 25.14C38.757 25.14 38.1457 24.9533 37.7537 24.58C37.3617 24.1973 37.1657 23.5487 37.1657 22.634V18.798ZM44.4216 18.798H42.8816V17.524H44.4216V16.082L45.8916 15.55V17.524H48.4676V18.798H45.8916V22.494C45.8916 22.998 45.985 23.348 46.1716 23.544C46.3583 23.7307 46.6616 23.824 47.0816 23.824C47.455 23.824 47.7676 23.7867 48.0196 23.712C48.2716 23.628 48.4956 23.5253 48.6916 23.404V24.734C48.533 24.8367 48.2856 24.93 47.9496 25.014C47.6136 25.098 47.245 25.14 46.8436 25.14C46.013 25.14 45.4016 24.9533 45.0096 24.58C44.6176 24.1973 44.4216 23.5487 44.4216 22.634V18.798ZM50.4208 21.234C50.4208 20.59 50.5095 20.0253 50.6868 19.54C50.8642 19.0547 51.1162 18.6533 51.4428 18.336C51.7695 18.0093 52.1615 17.7667 52.6188 17.608C53.0855 17.4493 53.6082 17.37 54.1868 17.37C55.3068 17.37 56.1748 17.6827 56.7908 18.308C57.4068 18.9333 57.7148 19.9227 57.7148 21.276C57.7148 21.9667 57.6262 22.5593 57.4488 23.054C57.2715 23.5393 57.0195 23.9407 56.6928 24.258C56.3755 24.5753 55.9928 24.8087 55.5448 24.958C55.0968 25.098 54.6022 25.168 54.0608 25.168C52.8568 25.168 51.9468 24.832 51.3308 24.16C50.7242 23.488 50.4208 22.5127 50.4208 21.234ZM51.9188 21.29C51.9188 22.13 52.1008 22.774 52.4648 23.222C52.8382 23.67 53.3982 23.894 54.1448 23.894C54.8168 23.894 55.3302 23.6933 55.6848 23.292C56.0395 22.8813 56.2168 22.214 56.2168 21.29V21.234C56.2168 20.338 56.0395 19.68 55.6848 19.26C55.3302 18.8307 54.7888 18.616 54.0608 18.616C52.6328 18.616 51.9188 19.4887 51.9188 21.234V21.29ZM60.1762 17.524H61.5762L61.6462 18.672C62.1129 17.8133 62.9249 17.384 64.0822 17.384C64.5302 17.384 64.9175 17.4307 65.2442 17.524C65.5709 17.6173 65.8415 17.776 66.0562 18C66.2709 18.2147 66.4295 18.504 66.5322 18.868C66.6349 19.2227 66.6862 19.6613 66.6862 20.184V25H65.2162V20.562C65.2162 20.198 65.1882 19.8947 65.1322 19.652C65.0855 19.4093 64.9969 19.218 64.8662 19.078C64.7355 18.9287 64.5582 18.8213 64.3342 18.756C64.1195 18.6907 63.8489 18.658 63.5222 18.658C62.8969 18.658 62.4302 18.826 62.1222 19.162C61.8142 19.498 61.6602 19.974 61.6602 20.59V25H60.1762V17.524Z" fill="white"/>
<rect x="96.5" y="0.5" width="83" height="39" rx="5.5" fill="white"/>
<path d="M113.64 15.228C113.845 15.2187 114.079 15.2093 114.34 15.2C114.601 15.1813 114.863 15.1673 115.124 15.158C115.395 15.1393 115.661 15.13 115.922 15.13C116.183 15.1207 116.421 15.116 116.636 15.116C117.327 15.116 117.901 15.1627 118.358 15.256C118.825 15.3493 119.198 15.4987 119.478 15.704C119.758 15.9 119.954 16.1567 120.066 16.474C120.187 16.7913 120.248 17.1693 120.248 17.608C120.248 18.7933 119.711 19.5447 118.638 19.862C119.357 19.9367 119.879 20.17 120.206 20.562C120.533 20.954 120.696 21.4767 120.696 22.13C120.696 22.6433 120.626 23.0867 120.486 23.46C120.346 23.8333 120.117 24.146 119.8 24.398C119.492 24.6407 119.081 24.8227 118.568 24.944C118.055 25.056 117.425 25.112 116.678 25.112C116.127 25.112 115.586 25.098 115.054 25.07C114.531 25.042 114.06 25.0047 113.64 24.958V15.228ZM115.208 23.67C115.451 23.698 115.717 23.7213 116.006 23.74C116.295 23.7493 116.571 23.754 116.832 23.754C117.28 23.754 117.649 23.726 117.938 23.67C118.227 23.6047 118.461 23.5067 118.638 23.376C118.815 23.236 118.937 23.0633 119.002 22.858C119.077 22.6527 119.114 22.4007 119.114 22.102C119.114 21.5233 118.946 21.1267 118.61 20.912C118.274 20.6973 117.742 20.59 117.014 20.59H115.208V23.67ZM116.888 19.442C117.569 19.442 118.041 19.316 118.302 19.064C118.563 18.812 118.694 18.4527 118.694 17.986C118.694 17.678 118.666 17.426 118.61 17.23C118.563 17.0247 118.465 16.866 118.316 16.754C118.167 16.642 117.961 16.5673 117.7 16.53C117.448 16.4833 117.117 16.46 116.706 16.46C116.463 16.46 116.211 16.4647 115.95 16.474C115.698 16.474 115.451 16.4833 115.208 16.502V19.442H116.888ZM128.129 23.838C127.886 24.286 127.564 24.6173 127.163 24.832C126.771 25.0467 126.271 25.154 125.665 25.154C124.843 25.154 124.218 24.9487 123.789 24.538C123.369 24.118 123.159 23.4367 123.159 22.494V17.524H124.643V22.088C124.643 22.4147 124.671 22.69 124.727 22.914C124.783 23.138 124.871 23.32 124.993 23.46C125.123 23.6 125.291 23.7027 125.497 23.768C125.702 23.8333 125.954 23.866 126.253 23.866C126.925 23.866 127.401 23.712 127.681 23.404C127.97 23.0867 128.115 22.5827 128.115 21.892V17.524H129.585V25H128.199L128.129 23.838ZM133.166 18.798H131.626V17.524H133.166V16.082L134.636 15.55V17.524H137.212V18.798H134.636V22.494C134.636 22.998 134.729 23.348 134.916 23.544C135.102 23.7307 135.406 23.824 135.826 23.824C136.199 23.824 136.512 23.7867 136.764 23.712C137.016 23.628 137.24 23.5253 137.436 23.404V24.734C137.277 24.8367 137.03 24.93 136.694 25.014C136.358 25.098 135.989 25.14 135.588 25.14C134.757 25.14 134.146 24.9533 133.754 24.58C133.362 24.1973 133.166 23.5487 133.166 22.634V18.798ZM140.422 18.798H138.882V17.524H140.422V16.082L141.892 15.55V17.524H144.468V18.798H141.892V22.494C141.892 22.998 141.985 23.348 142.172 23.544C142.358 23.7307 142.662 23.824 143.082 23.824C143.455 23.824 143.768 23.7867 144.02 23.712C144.272 23.628 144.496 23.5253 144.692 23.404V24.734C144.533 24.8367 144.286 24.93 143.95 25.014C143.614 25.098 143.245 25.14 142.844 25.14C142.013 25.14 141.402 24.9533 141.01 24.58C140.618 24.1973 140.422 23.5487 140.422 22.634V18.798ZM146.421 21.234C146.421 20.59 146.51 20.0253 146.687 19.54C146.864 19.0547 147.116 18.6533 147.443 18.336C147.77 18.0093 148.162 17.7667 148.619 17.608C149.086 17.4493 149.608 17.37 150.187 17.37C151.307 17.37 152.175 17.6827 152.791 18.308C153.407 18.9333 153.715 19.9227 153.715 21.276C153.715 21.9667 153.626 22.5593 153.449 23.054C153.272 23.5393 153.02 23.9407 152.693 24.258C152.376 24.5753 151.993 24.8087 151.545 24.958C151.097 25.098 150.602 25.168 150.061 25.168C148.857 25.168 147.947 24.832 147.331 24.16C146.724 23.488 146.421 22.5127 146.421 21.234ZM147.919 21.29C147.919 22.13 148.101 22.774 148.465 23.222C148.838 23.67 149.398 23.894 150.145 23.894C150.817 23.894 151.33 23.6933 151.685 23.292C152.04 22.8813 152.217 22.214 152.217 21.29V21.234C152.217 20.338 152.04 19.68 151.685 19.26C151.33 18.8307 150.789 18.616 150.061 18.616C148.633 18.616 147.919 19.4887 147.919 21.234V21.29ZM156.176 17.524H157.576L157.646 18.672C158.113 17.8133 158.925 17.384 160.082 17.384C160.53 17.384 160.918 17.4307 161.244 17.524C161.571 17.6173 161.842 17.776 162.056 18C162.271 18.2147 162.43 18.504 162.532 18.868C162.635 19.2227 162.686 19.6613 162.686 20.184V25H161.216V20.562C161.216 20.198 161.188 19.8947 161.132 19.652C161.086 19.4093 160.997 19.218 160.866 19.078C160.736 18.9287 160.558 18.8213 160.334 18.756C160.12 18.6907 159.849 18.658 159.522 18.658C158.897 18.658 158.43 18.826 158.122 19.162C157.814 19.498 157.66 19.974 157.66 20.59V25H156.176V17.524Z" fill="#4977FF"/>
<rect x="96.5" y="0.5" width="83" height="39" rx="5.5" stroke="#4977FF"/>
<g clip-path="url(#clip0_1_6766)">
<path d="M193.64 15.228C193.845 15.2187 194.079 15.2093 194.34 15.2C194.601 15.1813 194.863 15.1673 195.124 15.158C195.395 15.1393 195.661 15.13 195.922 15.13C196.183 15.1207 196.421 15.116 196.636 15.116C197.327 15.116 197.901 15.1627 198.358 15.256C198.825 15.3493 199.198 15.4987 199.478 15.704C199.758 15.9 199.954 16.1567 200.066 16.474C200.187 16.7913 200.248 17.1693 200.248 17.608C200.248 18.7933 199.711 19.5447 198.638 19.862C199.357 19.9367 199.879 20.17 200.206 20.562C200.533 20.954 200.696 21.4767 200.696 22.13C200.696 22.6433 200.626 23.0867 200.486 23.46C200.346 23.8333 200.117 24.146 199.8 24.398C199.492 24.6407 199.081 24.8227 198.568 24.944C198.055 25.056 197.425 25.112 196.678 25.112C196.127 25.112 195.586 25.098 195.054 25.07C194.531 25.042 194.06 25.0047 193.64 24.958V15.228ZM195.208 23.67C195.451 23.698 195.717 23.7213 196.006 23.74C196.295 23.7493 196.571 23.754 196.832 23.754C197.28 23.754 197.649 23.726 197.938 23.67C198.227 23.6047 198.461 23.5067 198.638 23.376C198.815 23.236 198.937 23.0633 199.002 22.858C199.077 22.6527 199.114 22.4007 199.114 22.102C199.114 21.5233 198.946 21.1267 198.61 20.912C198.274 20.6973 197.742 20.59 197.014 20.59H195.208V23.67ZM196.888 19.442C197.569 19.442 198.041 19.316 198.302 19.064C198.563 18.812 198.694 18.4527 198.694 17.986C198.694 17.678 198.666 17.426 198.61 17.23C198.563 17.0247 198.465 16.866 198.316 16.754C198.167 16.642 197.961 16.5673 197.7 16.53C197.448 16.4833 197.117 16.46 196.706 16.46C196.463 16.46 196.211 16.4647 195.95 16.474C195.698 16.474 195.451 16.4833 195.208 16.502V19.442H196.888ZM208.129 23.838C207.886 24.286 207.564 24.6173 207.163 24.832C206.771 25.0467 206.271 25.154 205.665 25.154C204.843 25.154 204.218 24.9487 203.789 24.538C203.369 24.118 203.159 23.4367 203.159 22.494V17.524H204.643V22.088C204.643 22.4147 204.671 22.69 204.727 22.914C204.783 23.138 204.871 23.32 204.993 23.46C205.123 23.6 205.291 23.7027 205.497 23.768C205.702 23.8333 205.954 23.866 206.253 23.866C206.925 23.866 207.401 23.712 207.681 23.404C207.97 23.0867 208.115 22.5827 208.115 21.892V17.524H209.585V25H208.199L208.129 23.838ZM213.166 18.798H211.626V17.524H213.166V16.082L214.636 15.55V17.524H217.212V18.798H214.636V22.494C214.636 22.998 214.729 23.348 214.916 23.544C215.102 23.7307 215.406 23.824 215.826 23.824C216.199 23.824 216.512 23.7867 216.764 23.712C217.016 23.628 217.24 23.5253 217.436 23.404V24.734C217.277 24.8367 217.03 24.93 216.694 25.014C216.358 25.098 215.989 25.14 215.588 25.14C214.757 25.14 214.146 24.9533 213.754 24.58C213.362 24.1973 213.166 23.5487 213.166 22.634V18.798ZM220.422 18.798H218.882V17.524H220.422V16.082L221.892 15.55V17.524H224.468V18.798H221.892V22.494C221.892 22.998 221.985 23.348 222.172 23.544C222.358 23.7307 222.662 23.824 223.082 23.824C223.455 23.824 223.768 23.7867 224.02 23.712C224.272 23.628 224.496 23.5253 224.692 23.404V24.734C224.533 24.8367 224.286 24.93 223.95 25.014C223.614 25.098 223.245 25.14 222.844 25.14C222.013 25.14 221.402 24.9533 221.01 24.58C220.618 24.1973 220.422 23.5487 220.422 22.634V18.798ZM226.421 21.234C226.421 20.59 226.51 20.0253 226.687 19.54C226.864 19.0547 227.116 18.6533 227.443 18.336C227.77 18.0093 228.162 17.7667 228.619 17.608C229.086 17.4493 229.608 17.37 230.187 17.37C231.307 17.37 232.175 17.6827 232.791 18.308C233.407 18.9333 233.715 19.9227 233.715 21.276C233.715 21.9667 233.626 22.5593 233.449 23.054C233.272 23.5393 233.02 23.9407 232.693 24.258C232.376 24.5753 231.993 24.8087 231.545 24.958C231.097 25.098 230.602 25.168 230.061 25.168C228.857 25.168 227.947 24.832 227.331 24.16C226.724 23.488 226.421 22.5127 226.421 21.234ZM227.919 21.29C227.919 22.13 228.101 22.774 228.465 23.222C228.838 23.67 229.398 23.894 230.145 23.894C230.817 23.894 231.33 23.6933 231.685 23.292C232.04 22.8813 232.217 22.214 232.217 21.29V21.234C232.217 20.338 232.04 19.68 231.685 19.26C231.33 18.8307 230.789 18.616 230.061 18.616C228.633 18.616 227.919 19.4887 227.919 21.234V21.29ZM236.176 17.524H237.576L237.646 18.672C238.113 17.8133 238.925 17.384 240.082 17.384C240.53 17.384 240.918 17.4307 241.244 17.524C241.571 17.6173 241.842 17.776 242.056 18C242.271 18.2147 242.43 18.504 242.532 18.868C242.635 19.2227 242.686 19.6613 242.686 20.184V25H241.216V20.562C241.216 20.198 241.188 19.8947 241.132 19.652C241.086 19.4093 240.997 19.218 240.866 19.078C240.736 18.9287 240.558 18.8213 240.334 18.756C240.12 18.6907 239.849 18.658 239.522 18.658C238.897 18.658 238.43 18.826 238.122 19.162C237.814 19.498 237.66 19.974 237.66 20.59V25H236.176V17.524Z" fill="#4977FF"/>
</g>
<defs>
<clipPath id="clip0_1_6766">
<rect x="192" y="12" width="52" height="16" rx="6" fill="white"/>
</clipPath>
</defs>
</svg>
