<svg width="220" height="78" viewBox="0 0 220 78" fill="none" xmlns="http://www.w3.org/2000/svg">
<g filter="url(#filter0_dd_1_6751)">
<rect x="8" y="4" width="204" height="62" rx="6" fill="white"/>
</g>
<rect x="43" y="19" width="106" height="6" rx="3" fill="#8F96AE"/>
<rect x="190" y="16" width="10" height="10" rx="5" fill="#D0D3DD"/>
<rect x="43" y="47" width="54" height="6" rx="3" fill="#D0D3DD"/>
<rect x="105" y="47" width="46" height="6" rx="3" fill="#D0D3DD"/>
<rect x="43" y="35" width="137" height="6" rx="3" fill="#D0D3DD"/>
<path d="M25 29.5C20.8578 29.5 17.5 26.1423 17.5 22C17.5 17.8578 20.8578 14.5 25 14.5C29.1423 14.5 32.5 17.8578 32.5 22C32.5 26.1423 29.1423 29.5 25 29.5ZM25 28C26.5913 28 28.1174 27.3679 29.2426 26.2426C30.3679 25.1174 31 23.5913 31 22C31 20.4087 30.3679 18.8826 29.2426 17.7574C28.1174 16.6321 26.5913 16 25 16C23.4087 16 21.8826 16.6321 20.7574 17.7574C19.6321 18.8826 19 20.4087 19 22C19 23.5913 19.6321 25.1174 20.7574 26.2426C21.8826 27.3679 23.4087 28 25 28ZM24.25 24.25H25.75V25.75H24.25V24.25ZM24.25 18.25H25.75V22.75H24.25V18.25Z" fill="#4977FF"/>
<defs>
<filter id="filter0_dd_1_6751" x="0" y="0" width="220" height="78" filterUnits="userSpaceOnUse" color-interpolation-filters="sRGB">
<feFlood flood-opacity="0" result="BackgroundImageFix"/>
<feColorMatrix in="SourceAlpha" type="matrix" values="0 0 0 0 0 0 0 0 0 0 0 0 0 0 0 0 0 0 127 0" result="hardAlpha"/>
<feOffset dy="4"/>
<feGaussianBlur stdDeviation="4"/>
<feColorMatrix type="matrix" values="0 0 0 0 0.14902 0 0 0 0 0.14902 0 0 0 0 0.14902 0 0 0 0.16 0"/>
<feBlend mode="normal" in2="BackgroundImageFix" result="effect1_dropShadow_1_6751"/>
<feColorMatrix in="SourceAlpha" type="matrix" values="0 0 0 0 0 0 0 0 0 0 0 0 0 0 0 0 0 0 127 0" result="hardAlpha"/>
<feOffset dy="1"/>
<feGaussianBlur stdDeviation="1"/>
<feColorMatrix type="matrix" values="0 0 0 0 0.14902 0 0 0 0 0.14902 0 0 0 0 0.14902 0 0 0 0.04 0"/>
<feBlend mode="normal" in2="effect1_dropShadow_1_6751" result="effect2_dropShadow_1_6751"/>
<feBlend mode="normal" in="SourceGraphic" in2="effect2_dropShadow_1_6751" result="shape"/>
</filter>
</defs>
</svg>
